<svg xmlns="http://www.w3.org/2000/svg" xmlns:xlink="http://www.w3.org/1999/xlink" viewBox="0 0 512 512" id="organization">
  <defs>
    <linearGradient id="a" x1="93.51" x2="93.51" y1="122.23" y2="64.8" gradientUnits="userSpaceOnUse">
      <stop offset="0" stop-color="#999"></stop>
      <stop offset="1" stop-color="#ccc"></stop>
    </linearGradient>
    <linearGradient id="b" x1="58.56" x2="58.56" y1="99.62" y2="17.5" gradientUnits="userSpaceOnUse">
      <stop offset="0" stop-color="#ff9500"></stop>
      <stop offset="1" stop-color="#ffcc1e"></stop>
    </linearGradient>
    <linearGradient xlink:href="#a" id="e" x1="418.49" x2="418.49" y2="64.8"></linearGradient>
    <linearGradient id="c" x1="453.44" x2="453.44" y1="99.62" y2="17.5" gradientUnits="userSpaceOnUse">
      <stop offset="0" stop-color="#0068c0"></stop>
      <stop offset="1" stop-color="#00aeff"></stop>
    </linearGradient>
    <linearGradient xlink:href="#a" id="f" x1="418.49" x2="418.49" y1="447.2" y2="389.77"></linearGradient>
    <linearGradient xlink:href="#b" id="g" x1="453.44" x2="453.44" y1="494.5" y2="412.38"></linearGradient>
    <linearGradient xlink:href="#a" id="h" y1="447.2" y2="389.77"></linearGradient>
    <linearGradient id="i" x1="58.56" x2="58.56" y1="494.5" y2="412.38" gradientUnits="userSpaceOnUse">
      <stop offset="0" stop-color="#62d154"></stop>
      <stop offset="1" stop-color="#9ded93"></stop>
    </linearGradient>
    <linearGradient id="d" x1="144.33" x2="144.33" y1="241.87" y2="46.79" gradientUnits="userSpaceOnUse">
      <stop offset="0" stop-color="#ffbd00"></stop>
      <stop offset="1" stop-color="#fff065"></stop>
    </linearGradient>
    <linearGradient xlink:href="#c" id="j" x1="367.67" x2="367.67" y1="241.87" y2="46.79"></linearGradient>
    <linearGradient xlink:href="#d" id="k" x1="367.67" x2="367.67" y1="465.21" y2="270.13"></linearGradient>
    <linearGradient id="l" x1="144.33" x2="144.33" y1="465.21" y2="270.13" gradientUnits="userSpaceOnUse">
      <stop offset="0" stop-color="#4ca342"></stop>
      <stop offset="1" stop-color="#54cc46"></stop>
    </linearGradient>
    <linearGradient xlink:href="#a" id="m" x1="256" x2="256" y1="364.37" y2="147.63"></linearGradient>
  </defs>
  <path fill="url(#a)" d="m109.73,122.23c-3.2,0-6.4-1.22-8.84-3.66l-32.43-32.43c-4.88-4.88-4.88-12.8,0-17.68,4.88-4.88,12.8-4.88,17.68,0l32.43,32.43c4.88,4.88,4.88,12.8,0,17.68-2.44,2.44-5.64,3.66-8.84,3.66Z"></path>
  <path fill="url(#b)" d="m58.56,17.5c-22.64,0-41.06,18.42-41.06,41.06s18.42,41.06,41.06,41.06,41.06-18.42,41.06-41.06-18.42-41.06-41.06-41.06Z"></path>
  <path fill="url(#e)" d="m402.27,122.23c-3.2,0-6.4-1.22-8.84-3.66-4.88-4.88-4.88-12.8,0-17.68l32.43-32.43c4.88-4.88,12.8-4.88,17.68,0,4.88,4.88,4.88,12.8,0,17.68l-32.43,32.43c-2.44,2.44-5.64,3.66-8.84,3.66Z"></path>
  <path fill="url(#c)" d="m453.44,17.5c-22.64,0-41.06,18.42-41.06,41.06s18.42,41.06,41.06,41.06,41.06-18.42,41.06-41.06-18.42-41.06-41.06-41.06Z"></path>
  <path fill="url(#f)" d="m434.7,447.2c-3.2,0-6.4-1.22-8.84-3.66l-32.43-32.43c-4.88-4.88-4.88-12.8,0-17.68,4.88-4.88,12.8-4.88,17.68,0l32.43,32.43c4.88,4.88,4.88,12.8,0,17.68-2.44,2.44-5.64,3.66-8.84,3.66Z"></path>
  <path fill="url(#g)" d="m453.44,412.38c-22.64,0-41.06,18.42-41.06,41.06s18.42,41.06,41.06,41.06,41.06-18.42,41.06-41.06-18.42-41.06-41.06-41.06Z"></path>
  <g>
    <path fill="url(#h)" d="m77.3,447.2c-3.2,0-6.4-1.22-8.84-3.66-4.88-4.88-4.88-12.8,0-17.68l32.43-32.43c4.88-4.88,12.8-4.88,17.68,0s4.88,12.8,0,17.68l-32.43,32.43c-2.44,2.44-5.64,3.66-8.84,3.66Z"></path>
    <path fill="url(#i)" d="m58.56,412.38c-22.64,0-41.06,18.42-41.06,41.06s18.42,41.06,41.06,41.06,41.06-18.42,41.06-41.06-18.42-41.06-41.06-41.06Z"></path>
  </g>
  <g>
    <path fill="url(#d)" d="m231.73,52.7c-6.42-5.14-14.68-7.05-22.69-5.26-80.19,17.98-143.62,81.41-161.6,161.6-1.79,8,.12,16.27,5.26,22.69,5.16,6.44,12.85,10.14,21.1,10.14h32.78c12.11,0,22.81-8.17,26.03-19.87h0c11.89-43.25,46.14-77.5,89.39-89.39,11.7-3.21,19.87-13.92,19.87-26.03v-32.78c0-8.25-3.7-15.94-10.14-21.1Z"></path>
    <path fill="url(#j)" d="m464.56,209.04c-17.98-80.19-81.41-143.62-161.6-161.6-8.01-1.79-16.27.12-22.69,5.26-6.44,5.16-10.14,12.85-10.14,21.1v32.78c0,12.11,8.17,22.81,19.87,26.03,43.25,11.89,77.5,46.14,89.39,89.39,3.22,11.7,13.92,19.87,26.03,19.87h32.78c8.25,0,15.94-3.7,21.1-10.14,5.14-6.42,7.05-14.69,5.26-22.69Z"></path>
    <path fill="url(#k)" d="m459.3,280.27c-5.16-6.44-12.85-10.14-21.1-10.14h-32.78c-12.11,0-22.81,8.17-26.03,19.87h0c-11.89,43.25-46.14,77.5-89.39,89.39-11.7,3.21-19.87,13.92-19.87,26.03v32.78c0,8.25,3.7,15.94,10.14,21.1,4.84,3.87,10.73,5.92,16.77,5.92,1.97,0,3.95-.22,5.92-.66,80.19-17.98,143.62-81.41,161.6-161.6,1.79-8-.12-16.27-5.26-22.69Z"></path>
    <path fill="url(#l)" d="m222,379.39c-43.25-11.89-77.5-46.14-89.39-89.39-3.22-11.7-13.92-19.87-26.03-19.87h-32.78c-8.25,0-15.94,3.7-21.1,10.14-5.14,6.42-7.05,14.69-5.26,22.69,17.98,80.19,81.41,143.62,161.6,161.6,1.97.44,3.95.66,5.92.66,6.04,0,11.93-2.04,16.77-5.92,6.44-5.16,10.14-12.85,10.14-21.1v-32.78c0-12.11-8.17-22.81-19.87-26.03Z"></path>
  </g>
  <path fill="url(#m)" d="m343.15,267.48l-6.22-3.59c.25-2.62.38-5.25.38-7.88s-.13-5.26-.38-7.88l6.22-3.59c12.97-7.49,17.43-24.13,9.94-37.1l-6.47-11.21c-3.63-6.28-9.48-10.78-16.49-12.65s-14.33-.91-20.61,2.71l-6.21,3.59c-4.29-3.08-8.86-5.72-13.67-7.9v-7.17c0-14.98-12.18-27.16-27.16-27.16h-12.95c-14.98,0-27.16,12.18-27.16,27.16v7.17c-4.81,2.18-9.37,4.82-13.67,7.9l-6.21-3.59c-6.28-3.63-13.6-4.59-20.61-2.71-7.01,1.88-12.86,6.37-16.49,12.65l-6.47,11.21c-7.49,12.97-3.03,29.61,9.94,37.1l6.22,3.59c-.25,2.62-.38,5.25-.38,7.88s.13,5.26.38,7.88l-6.22,3.59c-12.97,7.49-17.43,24.13-9.94,37.1l6.47,11.21c7.49,12.97,24.13,17.43,37.1,9.94l6.21-3.59c4.29,3.08,8.86,5.72,13.67,7.9v7.17c0,14.98,12.18,27.16,27.16,27.16h12.95c14.98,0,27.16-12.18,27.16-27.16v-7.17c4.81-2.18,9.37-4.82,13.67-7.9l6.21,3.59c12.97,7.49,29.61,3.03,37.1-9.94l6.47-11.21c7.49-12.97,3.03-29.61-9.94-37.1Zm-72.08-11.48c0,8.31-6.76,15.06-15.06,15.06s-15.06-6.76-15.06-15.06,6.76-15.06,15.06-15.06,15.06,6.76,15.06,15.06Z"></path>
</svg>